<?xml version="1.0" encoding="UTF-8" standalone="no"?>
<!-- Created with Inkscape (http://www.inkscape.org/) -->

<svg
   xmlns:dc="http://purl.org/dc/elements/1.1/"
   xmlns:cc="http://creativecommons.org/ns#"
   xmlns:rdf="http://www.w3.org/1999/02/22-rdf-syntax-ns#"
   xmlns:svg="http://www.w3.org/2000/svg"
   xmlns="http://www.w3.org/2000/svg"
   xmlns:sodipodi="http://sodipodi.sourceforge.net/DTD/sodipodi-0.dtd"
   xmlns:inkscape="http://www.inkscape.org/namespaces/inkscape"
   width="1088"
   height="1621.3336"
   id="svg2"
   sodipodi:version="0.32"
   inkscape:version="0.92.1 r"
   version="1.0"
   sodipodi:docname="mockup_home_desktop_writer.svg"
   inkscape:output_extension="org.inkscape.output.svg.inkscape"
   inkscape:export-filename="/home/bea/Projects/Design/out/mockup_home_desktop_writer.png"
   inkscape:export-xdpi="100"
   inkscape:export-ydpi="100">
  <metadata
     id="metadata2425">
    <rdf:RDF>
      <cc:Work
         rdf:about="">
        <dc:format>image/svg+xml</dc:format>
        <dc:type
           rdf:resource="http://purl.org/dc/dcmitype/StillImage" />
        <dc:title />
      </cc:Work>
    </rdf:RDF>
  </metadata>
  <defs
     id="defs4">
    <inkscape:path-effect
       effect="simplify"
       id="path-effect5640"
       is_visible="true"
       steps="1"
       threshold="0.0187443"
       smooth_angles="360"
       helper_size="0"
       simplify_individual_paths="false"
       simplify_just_coalesce="false"
       simplifyindividualpaths="false"
       simplifyJustCoalesce="false" />
  </defs>
  <sodipodi:namedview
     id="base"
     pagecolor="#ffffff"
     bordercolor="#666666"
     borderopacity="1.0"
     gridtolerance="10000"
     guidetolerance="10"
     objecttolerance="10"
     inkscape:pageopacity="0.0"
     inkscape:pageshadow="2"
     inkscape:zoom="1"
     inkscape:cx="336.55426"
     inkscape:cy="72.378596"
     inkscape:document-units="px"
     inkscape:current-layer="svg2"
     showgrid="true"
     showguides="true"
     inkscape:guide-bbox="true"
     inkscape:window-width="1366"
     inkscape:window-height="711"
     inkscape:window-x="0"
     inkscape:window-y="29"
     inkscape:measure-start="0,0"
     inkscape:measure-end="0,0"
     inkscape:window-maximized="1"
     fit-margin-top="0"
     fit-margin-left="0"
     fit-margin-right="0"
     fit-margin-bottom="0">
    <sodipodi:guide
       position="32,533.33338"
       orientation="1,0"
       id="guide-30"
       inkscape:locked="false" />
    <sodipodi:guide
       position="42.666667,533.33338"
       orientation="1,0"
       id="guide-40"
       inkscape:locked="false" />
    <sodipodi:guide
       position="106.66667,533.33338"
       orientation="1,0"
       id="guide-100"
       inkscape:locked="false" />
    <sodipodi:guide
       position="117.33333,533.33338"
       orientation="1,0"
       id="guide-110"
       inkscape:locked="false" />
    <sodipodi:guide
       position="128,533.33338"
       orientation="1,0"
       id="guide-120"
       inkscape:locked="false" />
    <sodipodi:guide
       position="192,533.33338"
       orientation="1,0"
       id="guide-180"
       inkscape:locked="false" />
    <sodipodi:guide
       position="202.66667,533.33338"
       orientation="1,0"
       id="guide-190"
       inkscape:locked="false" />
    <sodipodi:guide
       position="213.33333,533.33338"
       orientation="1,0"
       id="guide-200"
       inkscape:locked="false" />
    <sodipodi:guide
       position="277.33333,533.33338"
       orientation="1,0"
       id="guide-260"
       inkscape:locked="false" />
    <sodipodi:guide
       position="288,533.33338"
       orientation="-1,1.0165641e-08"
       id="guide-270"
       inkscape:locked="false" />
    <sodipodi:guide
       position="298.66667,533.33338"
       orientation="1,0"
       id="guide-280"
       inkscape:locked="false" />
    <sodipodi:guide
       position="362.66667,533.33338"
       orientation="1,0"
       id="guide-340"
       inkscape:locked="false" />
    <sodipodi:guide
       position="373.33333,533.33338"
       orientation="1,0"
       id="guide-350"
       inkscape:locked="false" />
    <sodipodi:guide
       position="384,533.33338"
       orientation="1,0"
       id="guide-360"
       inkscape:locked="false" />
    <sodipodi:guide
       position="448,533.33338"
       orientation="1,0"
       id="guide-420"
       inkscape:locked="false" />
    <sodipodi:guide
       position="458.66667,533.33338"
       orientation="1,0"
       id="guide-430"
       inkscape:locked="false" />
    <sodipodi:guide
       position="469.33333,533.33338"
       orientation="1,0"
       id="guide-440"
       inkscape:locked="false" />
    <sodipodi:guide
       position="533.33333,533.33338"
       orientation="1,0"
       id="guide-500"
       inkscape:locked="false" />
    <sodipodi:guide
       position="544,533.33338"
       orientation="1,0"
       id="guide-510"
       inkscape:locked="false" />
    <sodipodi:guide
       position="554.66667,533.33338"
       orientation="1,0"
       id="guide-520"
       inkscape:locked="false" />
    <sodipodi:guide
       position="618.66667,533.33338"
       orientation="1,0"
       id="guide-580"
       inkscape:locked="false" />
    <sodipodi:guide
       position="629.33333,533.33338"
       orientation="1,0"
       id="guide-590"
       inkscape:locked="false" />
    <sodipodi:guide
       position="640,533.33338"
       orientation="1,0"
       id="guide-600"
       inkscape:locked="false" />
    <sodipodi:guide
       position="704,533.33338"
       orientation="1,0"
       id="guide-660"
       inkscape:locked="false" />
    <sodipodi:guide
       position="714.66667,533.33338"
       orientation="1,0"
       id="guide-670"
       inkscape:locked="false" />
    <sodipodi:guide
       position="725.33333,533.33338"
       orientation="1,0"
       id="guide-680"
       inkscape:locked="false" />
    <sodipodi:guide
       position="789.33333,533.33338"
       orientation="1,0"
       id="guide-740"
       inkscape:locked="false" />
    <sodipodi:guide
       position="800,533.33338"
       orientation="1,0"
       id="guide-750"
       inkscape:locked="false" />
    <sodipodi:guide
       position="810.66667,533.33338"
       orientation="1,0"
       id="guide-760"
       inkscape:locked="false" />
    <sodipodi:guide
       position="874.66667,533.33338"
       orientation="1,0"
       id="guide-820"
       inkscape:locked="false" />
    <sodipodi:guide
       position="885.33333,533.33338"
       orientation="1,0"
       id="guide-830"
       inkscape:locked="false" />
    <sodipodi:guide
       position="896,533.33338"
       orientation="1,0"
       id="guide-840"
       inkscape:locked="false" />
    <sodipodi:guide
       position="960,533.33338"
       orientation="1,0"
       id="guide-900"
       inkscape:locked="false" />
    <sodipodi:guide
       position="970.66667,533.33338"
       orientation="1,0"
       id="guide-910"
       inkscape:locked="false" />
    <sodipodi:guide
       position="981.33333,533.33338"
       orientation="1,0"
       id="guide-920"
       inkscape:locked="false" />
    <sodipodi:guide
       position="1045.3333,533.33338"
       orientation="1,0"
       id="guide-980"
       inkscape:locked="false" />
    <sodipodi:guide
       position="1056,533.33338"
       orientation="1,0"
       id="guide-990"
       inkscape:locked="false" />
    <inkscape:grid
       type="xygrid"
       id="grid2390"
       visible="true"
       enabled="true"
       color="#0000ff"
       opacity="0.0627451"
       empcolor="#0000ff"
       empopacity="0.1254902"
       dotted="false"
       spacingx="1.0666667"
       spacingy="1.0666667"
       originx="2.9605948e-17"
       originy="533.33338" />
  </sodipodi:namedview>
  <path
     style="opacity:0.997;fill:#feffff;fill-opacity:1;stroke:none;stroke-width:32.92076874;stroke-linecap:round;stroke-linejoin:round;stroke-miterlimit:4;stroke-dasharray:none;stroke-opacity:1"
     d="M 0,255.99997 H 1088 V 1353.3335 H 0 Z"
     id="rect5316"
     inkscape:connector-curvature="0"
     sodipodi:nodetypes="ccccc" />
  <g
     id="g5393"
     transform="translate(0,2.5410156e-5)" />
  <rect
     y="0"
     x="0"
     height="128"
     width="1088"
     id="rect4874"
     style="opacity:0.997;fill:#03669e;fill-opacity:1;stroke:none;stroke-width:7.9456048;stroke-linecap:round;stroke-linejoin:round;stroke-miterlimit:4;stroke-dasharray:none;stroke-opacity:1" />
  <g
     id="g4897"
     transform="translate(75.364542,-0.29120729)">
    <flowRoot
       transform="translate(636.35885,-44.597476)"
       style="font-style:normal;font-weight:normal;font-size:40px;line-height:1.25;font-family:sans-serif;letter-spacing:0px;word-spacing:0px;fill:#000000;fill-opacity:1;stroke:none"
       id="flowRoot4876"
       xml:space="preserve"><flowRegion
         id="flowRegion4878"><rect
           y="85.333305"
           x="128"
           height="213.33334"
           width="469.33334"
           id="rect4880" /></flowRegion><flowPara
         style="fill:#ffffff;fill-opacity:1"
         id="flowPara4882">English</flowPara></flowRoot>    <path
       style="opacity:0.997;fill:#f6f6f6;fill-opacity:1;stroke:none;stroke-width:1.2997154;stroke-linecap:round;stroke-linejoin:round;stroke-miterlimit:4;stroke-dasharray:none;stroke-opacity:1;paint-order:stroke fill markers"
       d="m 981.33336,57.741885 -15.09133,15.091318 c -0.69671,0.696708 -1.8185,0.696708 -2.51521,-8e-6 L 948.6355,57.741878 c -0.69672,-0.696716 -0.69672,-1.818502 -10e-6,-2.515212 l 32.69787,-7e-6 c 0.69671,0.696715 0.69671,1.818502 0,2.515226 z"
       id="path4886"
       inkscape:connector-curvature="0"
       sodipodi:nodetypes="ssssccs" />
  </g>
  <rect
     style="opacity:0.997;fill:#eaeaf3;fill-opacity:1;stroke:none;stroke-width:7.9456048;stroke-linecap:round;stroke-linejoin:round;stroke-miterlimit:4;stroke-dasharray:none;stroke-opacity:1"
     id="rect4899"
     width="1088"
     height="128"
     x="2.9605949e-17"
     y="128" />
  <g
     id="g5620"
     transform="translate(0,11.508323)">
    <g
       transform="matrix(0.79776704,0,0,0.79776704,6.5719817,30.289978)"
       id="g5267">
      <rect
         style="opacity:0.997;fill:#eaeaf3;fill-opacity:1;stroke:none;stroke-width:3.07850718;stroke-linecap:round;stroke-linejoin:round;stroke-miterlimit:4;stroke-dasharray:none;stroke-opacity:1"
         id="rect5254"
         width="271.50299"
         height="77"
         x="32.497086"
         y="149.77766" />
      <g
         id="g5179">
        <g
           transform="translate(-0.028654,-1.8468715)"
           id="g5149">
          <rect
             y="151.62453"
             x="32.525818"
             height="77"
             width="77"
             id="rect5137"
             style="opacity:0.997;fill:#eaeaf3;fill-opacity:1;stroke:none;stroke-width:1.63945031;stroke-linecap:round;stroke-linejoin:round;stroke-miterlimit:4;stroke-dasharray:none;stroke-opacity:1" />
          <path
             id="path4971"
             d="m 32.644446,162.52646 31.3705,-4.27234 0.01371,30.25939 -31.355556,0.17856 z m 31.355556,29.47351 0.02435,30.28576 -31.355556,-4.31092 -0.0018,-26.17798 z m 3.802839,-34.30476 41.594679,-6.07068 v 36.50413 l -41.594679,0.33021 z m 41.604349,34.58957 -0.01,36.33975 -41.594678,-5.87062 -0.05828,-30.53716 z"
             style="fill:#2d2d2d;fill-opacity:1;stroke-width:0.87904555"
             inkscape:connector-curvature="0" />
        </g>
        <g
           transform="translate(1.4858627,-1.84687)"
           id="g5156">
          <rect
             style="opacity:0.997;fill:#eaeaf3;fill-opacity:1;stroke:none;stroke-width:2.478616;stroke-linecap:round;stroke-linejoin:round;stroke-miterlimit:4;stroke-dasharray:none;stroke-opacity:1"
             id="rect5141"
             width="176"
             height="77"
             x="126.51414"
             y="151.62453" />
          <flowRoot
             xml:space="preserve"
             id="flowRoot5105"
             style="font-style:normal;font-weight:normal;font-size:40px;line-height:1.25;font-family:sans-serif;letter-spacing:0px;word-spacing:0px;fill:#2d2d2d;fill-opacity:1;stroke:none"
             transform="translate(-66.460473,-148.0256)"><flowRegion
               id="flowRegion5107"
               style="fill:#2d2d2d;fill-opacity:1"><rect
                 id="rect5109"
                 width="352"
                 height="106.66667"
                 x="192"
                 y="319.99997"
                 style="fill:#2d2d2d;fill-opacity:1" /></flowRegion><flowPara
               id="flowPara5111">Windows</flowPara></flowRoot>        </g>
      </g>
    </g>
    <g
       transform="matrix(0.79776704,0,0,0.79776704,-27.016888,30.289978)"
       id="g5281">
      <rect
         y="149.77766"
         x="373.08392"
         height="77"
         width="271.50299"
         id="rect5235"
         style="opacity:0.997;fill:#eaeaf3;fill-opacity:1;stroke:none;stroke-width:3.07850718;stroke-linecap:round;stroke-linejoin:round;stroke-miterlimit:4;stroke-dasharray:none;stroke-opacity:1" />
      <g
         id="g5191"
         transform="translate(0,4.057448)">
        <g
           transform="translate(17.769221,-3.0724406)"
           id="g5161">
          <rect
             style="opacity:0.997;fill:#eaeaf3;fill-opacity:1;stroke:none;stroke-width:1.63945031;stroke-linecap:round;stroke-linejoin:round;stroke-miterlimit:4;stroke-dasharray:none;stroke-opacity:1"
             id="rect5139"
             width="77"
             height="77"
             x="354.56827"
             y="148.79265" />
          <g
             id="g5036"
             transform="matrix(0.25494156,0,0,0.25494156,358.2509,220.1253)"
             style="fill:#5f5f5f;fill-opacity:1">
            <path
               id="path5034"
               d="m 132,-206 c 0,1 -1,1 -1,1 h -1 c -1,0 -1,-1 -2,-2 0,0 -1,-1 -1,-2 0,-1 0,-1 1,-1 l 2,1 c 1,1 2,2 2,3 m -18,-10 c 0,-5 -2,-8 -5,-8 0,0 0,1 -1,1 v 2 h 3 c 0,2 1,3 1,5 h 2 m 35,-5 c 2,0 3,2 4,5 h 2 c -1,-1 -1,-2 -1,-3 0,-1 0,-2 -1,-3 -1,-1 -2,-2 -3,-2 0,0 -1,1 -2,1 0,1 1,1 1,2 m -30,16 c -1,0 -1,0 -1,-1 0,-1 0,-2 1,-3 2,0 3,-1 3,-1 1,0 1,1 1,1 0,1 -1,2 -3,4 h -1 m -11,-1 c -4,-2 -5,-5 -5,-10 0,-3 0,-5 2,-7 1,-2 3,-3 5,-3 2,0 3,1 5,3 1,3 2,6 2,9 v 1 1 h 1 v -1 c 1,0 1,-2 1,-6 0,-3 0,-6 -2,-9 -2,-3 -4,-5 -8,-5 -3,0 -6,2 -7,5 -2,4 -2.4,7 -2.4,12 0,4 1.4,8 5.4,12 1,-1 2,-1 3,-2 m 125,141 c 1,0 1,-0.4 1,-1.3 0,-2.2 -1,-4.8 -4,-7.7 -3,-3 -8,-4.9 -14,-5.7 -1,-0.1 -2,-0.1 -2,-0.1 -1,-0.2 -1,-0.2 -2,-0.2 -1,-0.1 -3,-0.3 -4,-0.5 3,-9.3 4,-17.5 4,-24.7 0,-10 -2,-17 -6,-23 -4,-6 -8,-9 -13,-10 -1,1 -1,1 -1,2 5,2 10,6 13,12 3,7 4,13 4,20 0,5.6 -1,13.9 -5,24.5 -4,1.6 -8,5.3 -11,11.1 0,0.9 0,1.4 1,1.4 0,0 1,-0.9 2,-2.6 2,-1.7 3,-3.4 5,-5.1 3,-1.7 5,-2.6 8,-2.6 5,0 10,0.7 13,2.1 4,1.3 6,2.7 7,4.3 1,1.5 2,2.9 3,4.2 0,1.3 1,1.9 1,1.9 m -92,-145 c -1,-1 -1,-3 -1,-5 0,-4 0,-6 2,-9 2,-2 4,-3 6,-3 3,0 5,2 7,4 1,3 2,5 2,8 0,5 -2,8 -6,9 0,0 1,1 2,1 2,0 3,1 5,2 1,-6 2,-10 2,-15 0,-6 -1,-10 -3,-13 -3,-3 -6,-4 -10,-4 -3,0 -6,1 -9,3 -2,3 -3,5 -3,8 0,5 1,9 3,13 1,0 2,1 3,1 m 12,16 c -13,9 -23,13 -31,13 -7,0 -14,-3 -20,-8 1,2 2,4 3,5 l 6,6 c 4,4 9,6 14,6 7,0 15,-4 25,-11 l 9,-6 c 2,-2 4,-4 4,-7 0,-1 0,-2 -1,-2 -1,-2 -6,-5 -16,-8 -9,-4 -16,-6 -20,-6 -3,0 -8,2 -15,6 -6,4 -10,8 -10,12 0,0 1,1 2,3 6,5 12,8 18,8 8,0 18,-4 31,-14 v 2 c 1,0 1,1 1,1 M 176,8 c 4,7.52 11,11.3 19,11.3 2,0 4,-0.3 6,-0.9 2,-0.4 4,-1.1 5,-1.9 1,-0.7 2,-1.4 3,-2.2 2,-0.7 2,-1.2 3,-1.7 l 17,-14.7 c 4,-3.19 8,-5.98 13,-8.4 4,-2.4 8,-4 10,-4.9 3,-0.8 5,-2 7,-3.6 1,-1.5 2,-3.4 2,-5.8 0,-2.9 -2,-5.1 -4,-6.7 -2,-1.6 -4,-2.7 -6,-3.4 -2,-0.7 -4,-2.3 -7,-5 -2,-2.6 -4,-6.2 -5,-10.9 l -1,-5.8 c -1,-2.7 -1,-4.7 -2,-5.8 0,-0.3 0,-0.4 -1,-0.4 -1,0 -3,0.9 -4,2.6 -2,1.7 -4,3.6 -6,5.6 -1,2 -4,3.8 -6,5.5 -3,1.7 -6,2.6 -8,2.6 -8,0 -12,-2.2 -15,-6.5 -2,-3.2 -3,-6.9 -4,-11.1 -2,-1.7 -3,-2.6 -5,-2.6 -5,0 -7,5.2 -7,15.7 v 3.3 11.6 8.9 4.3 3 c 0,0.9 -1,2.9 -1,6 -1,3.1 -1,6.62 -1,10.6 L 176,7.8 V 7.97 M 31,2.68 c 9.3,1.36 20,4.27 32.1,8.71 12.1,4.4 19.5,6.7 22.2,6.7 7,0 12.8,-3.1 17.6,-9.09 1,-1.94 1,-4.22 1,-6.84 0,-9.45 -5.7,-21.4 -17.1,-35.9 l -6.8,-9.1 c -1.4,-1.9 -3.1,-4.8 -5.3,-8.7 -2.1,-3.9 -4,-6.9 -5.5,-9 -1.3,-2.3 -3.4,-4.6 -6.1,-6.9 -2.6,-2.3 -5.6,-3.8 -8.9,-4.6 -4.2,0.8 -7.1,2.2 -8.5,4.1 -1.4,1.9 -2.2,4 -2.4,6.2 -0.3,2.1 -0.9,3.5 -1.9,4.2 -1,0.6 -2.7,1.1 -5,1.6 -0.5,0 -1.4,0 -2.7,0.1 H 31 c -5.3,0 -8.9,0.6 -10.8,1.6 -2.5,2.9 -3.8,6.2 -3.8,9.7 0,1.6 0.4,4.3 1.2,8.1 0.8,3.7 1.2,6.7 1.2,8.8 0,4.1 -1.2,8.2 -3.7,12.3 -2.5,4.3 -3.8,7.5 -3.8,9.78 1,3.88 7.6,6.61 19.7,8.21 m 33.3,-90.9 c 0,-6.9 1.8,-14.5 5.5,-23.5 3.6,-9 7.2,-15 10.7,-19 -0.2,-1 -0.7,-1 -1.5,-1 l -1,-1 c -2.9,3 -6.4,10 -10.6,20 -4.2,9 -6.4,17.3 -6.4,23.4 0,4.5 1.1,8.4 3.1,11.8 2.2,3.3 7.5,8.1 15.9,14.2 l 10.6,6.9 c 11.3,9.8 17.3,16.6 17.3,20.6 0,2.1 -1,4.2 -4,6.5 -2,2.4 -4.7,3.6 -7,3.6 -0.2,0 -0.3,0.2 -0.3,0.7 0,0.1 1,2.1 3.1,6 4.2,5.7 13.2,8.5 25.2,8.5 22,0 39,-9 52,-27 0,-5 0,-8.1 -1,-9.4 v -3.7 c 0,-6.5 1,-11.4 3,-14.6 2,-3.2 4,-4.7 7,-4.7 2,0 4,0.7 6,2.2 1,-7.7 1,-14.4 1,-20.4 0,-9.1 0,-16.6 -2,-23.6 -1,-6 -3,-11 -5,-15 -2,-3 -4,-6 -6,-9 -2,-3 -3,-6 -5,-9 -1,-4 -2,-7 -2,-12 -3,-5 -5,-10 -8,-15 -2,-5 -4,-10 -6,-14 l -9,7 c -10,7 -18,10 -25,10 -6,0 -11,-1 -14,-5 l -6,-5 c 0,3 -1,7 -3,11 l -6.3,12 c -2.8,7 -4.3,11 -4.6,14 -0.4,2 -0.7,4 -0.9,4 l -7.5,15 c -8.1,15 -12.2,28.9 -12.2,40.4 0,2.3 0.2,4.7 0.6,7.1 -4.5,-3.1 -6.7,-7.4 -6.7,-13 m 71.6,94.6 c -13,0 -23,1.76 -30,5.25 v -0.3 c -5,6 -10.6,9.1 -18.4,9.1 -4.9,0 -12.6,-1.9 -23,-5.7 C 54,11.1 44.7,8.34 36.6,6.52 35.8,6.29 34,5.95 31.1,5.49 28.3,5.04 25.7,4.58 23.4,4.12 21.3,3.67 18.9,2.99 16.3,2.07 13.8,1.28 11.8,0.25 10.3,-1 8.92,-2.26 8.24,-3.68 8.24,-5.27 c 0,-1.6 0.34,-3.31 1.02,-5.13 0.64,-1.1 1.34,-2.2 2.04,-3.2 0.7,-1.1 1.3,-2.1 1.7,-3.1 0.6,-0.9 1,-1.8 1.4,-2.8 0.4,-0.9 0.8,-1.8 1,-2.9 0.2,-1 0.4,-2 0.4,-3 0,-1 -0.4,-4 -1.2,-9.3 -0.8,-5.2 -1.2,-8.5 -1.2,-9.9 0,-4.4 1,-7.9 3.2,-10.4 2.2,-2.5 4.3,-3.8 6.5,-3.8 h 11.5 c 0.9,0 2.3,-0.5 4.4,-1.7 0.7,-1.6 1.3,-2.9 1.7,-4.1 0.5,-1.2 0.7,-2.1 0.9,-2.5 0.2,-0.6 0.4,-1.2 0.6,-1.7 0.4,-0.7 0.9,-1.5 1.6,-2.3 -0.8,-1 -1.2,-2.3 -1.2,-3.9 0,-1.1 0,-2.1 0.2,-2.7 0,-3.6 1.7,-8.7 5.3,-15.4 l 3.5,-6.3 c 2.9,-5.4 5.1,-9.4 6.7,-13.4 1.7,-4 3.5,-10 5.5,-18 1.6,-7 5.4,-14 11.4,-21 l 7.5,-9 c 5.2,-6 8.6,-11 10.5,-15 1.9,-4 2.9,-9 2.9,-13 0,-2 -0.5,-8 -1.6,-18 -1,-10 -1.5,-20 -1.5,-29 0,-7 0.6,-12 1.9,-17 1.3,-5 3.6,-10 7,-14 3,-4 7,-8 13,-10 6,-2 13,-3 21,-3 3,0 6,0 9,1 3,0 7,1 12,3 4,2 8,4 11,7 4,3 7,8 10,13 2,6 4,12 5,20 1,5 1,10 2,17 0,6 1,10 1,13 1,3 1,7 2,12 1,4 2,8 4,11 2,4 4,8 7,12 3,5 7,10 11,16 9,10 16,21 20,32 5,10 8,23 8,36.9 0,6.9 -1,13.6 -3,20.1 2,0 3,0.8 4,2.2 1,1.4 2,4.4 3,9.1 l 1,7.4 c 1,2.2 2,4.3 5,6.1 2,1.8 4,3.3 7,4.5 2,1 5,2.4 7,4.2 2,2 3,4.1 3,6.3 0,3.4 -1,5.9 -3,7.7 -2,2 -4,3.4 -7,4.3 -2,1 -6,3 -12,5.82 -5,2.96 -10,6.55 -15,10.8 l -10,8.51 c -4,3.9 -8,6.7 -11,8.4 -3,1.8 -7,2.7 -11,2.7 l -7,-0.8 c -8,-2.1 -13,-6.1 -16,-12.2 -16,-1.94 -29,-2.9 -37,-2.9"
               inkscape:connector-curvature="0"
               style="fill:#5f5f5f;fill-opacity:1" />
          </g>
        </g>
        <g
           transform="translate(17.769221,-3.0724406)"
           id="g5168">
          <rect
             y="148.79265"
             x="451.56415"
             height="77"
             width="176"
             id="rect5133"
             style="opacity:0.997;fill:#eaeaf3;fill-opacity:1;stroke:none;stroke-width:2.478616;stroke-linecap:round;stroke-linejoin:round;stroke-miterlimit:4;stroke-dasharray:none;stroke-opacity:1" />
          <flowRoot
             xml:space="preserve"
             id="flowRoot5127"
             style="font-style:normal;font-weight:normal;font-size:40px;line-height:1.25;font-family:sans-serif;letter-spacing:0px;word-spacing:0px;fill:#5f5f5f;fill-opacity:1;stroke:none"
             transform="translate(255.63837,-153.18587)"><flowRegion
               id="flowRegion5123"
               style="fill:#5f5f5f;fill-opacity:1"><rect
                 id="rect5121"
                 width="352"
                 height="106.66667"
                 x="192"
                 y="319.99997"
                 style="fill:#5f5f5f;fill-opacity:1" /></flowRegion><flowPara
               id="flowPara5129">Linux</flowPara></flowRoot>        </g>
      </g>
    </g>
    <g
       transform="matrix(0.79776704,0,0,0.79776704,6.5719817,30.289978)"
       id="g5294">
      <rect
         style="opacity:0.997;fill:#eaeaf3;fill-opacity:1;stroke:none;stroke-width:3.07850718;stroke-linecap:round;stroke-linejoin:round;stroke-miterlimit:4;stroke-dasharray:none;stroke-opacity:1"
         id="rect5237"
         width="271.50299"
         height="77"
         x="629.4635"
         y="149.77766" />
      <g
         id="g5213"
         transform="translate(0,-2.5556496)">
        <g
           transform="translate(17.359338,-4.5630851)"
           id="g5195">
          <rect
             style="opacity:0.997;fill:#eaeaf3;fill-opacity:1;stroke:none;stroke-width:1.63945031;stroke-linecap:round;stroke-linejoin:round;stroke-miterlimit:4;stroke-dasharray:none;stroke-opacity:1"
             id="rect5135"
             width="77"
             height="77"
             x="611.73737"
             y="156.89639" />
          <path
             id="path5094"
             d="m 681.30735,216.90277 c -1.16447,2.69016 -2.54282,5.16645 -4.13981,7.4431 -2.17685,3.10368 -3.9592,5.252 -5.3328,6.445 -2.12932,1.95821 -4.41073,2.96108 -6.85374,3.01811 -1.75384,0 -3.8689,-0.49905 -6.33092,-1.51143 -2.47011,-1.00763 -4.74012,-1.50668 -6.81572,-1.50668 -2.17685,0 -4.5115,0.49905 -7.00869,1.50668 -2.501,1.01238 -4.51577,1.53995 -6.0562,1.59224 -2.34273,0.0998 -4.67785,-0.93159 -7.00869,-3.09892 -1.48767,-1.29756 -3.34845,-3.52194 -5.57758,-6.67314 -2.39168,-3.36508 -4.35797,-7.26725 -5.8984,-11.716 -1.64975,-4.80523 -2.47676,-9.45835 -2.47676,-13.9632 0,-5.16026 1.11504,-9.61092 3.34845,-13.34055 1.75526,-2.99578 4.09038,-5.35894 7.01297,-7.09377 2.92258,-1.73482 6.08043,-2.61887 9.48117,-2.67543 1.86077,0 4.30093,0.57558 7.33331,1.70678 3.02383,1.13501 4.9654,1.71059 5.81665,1.71059 0.63642,0 2.79331,-0.67302 6.44974,-2.01478 3.45777,-1.24432 6.37607,-1.75954 8.76681,-1.55659 6.47826,0.52282 11.34528,3.07658 14.58203,7.67743 -5.79384,3.51052 -8.65987,8.42744 -8.60283,14.73508 0.0523,4.91311 1.83464,9.00159 5.33755,12.24785 1.58749,1.50669 3.36033,2.67115 5.3328,3.49817 -0.42776,1.24052 -0.87929,2.42875 -1.35934,3.56946 z m -14.85769,-58.46595 c 0,3.85088 -1.40688,7.44644 -4.21111,10.77444 -3.3841,3.95636 -7.47733,6.24252 -11.91611,5.88177 -0.0565,-0.46198 -0.0894,-0.94821 -0.0894,-1.45915 0,-3.69684 1.60935,-7.65319 4.46729,-10.88805 1.42683,-1.63785 3.24151,-2.99972 5.44212,-4.0861 2.19586,-1.07017 4.2729,-1.662 6.22635,-1.76334 0.057,0.51479 0.0808,1.02963 0.0808,1.54038 z"
             inkscape:connector-curvature="0"
             style="fill:#5f5f5f;fill-opacity:1;stroke-width:0.47529429" />
        </g>
        <g
           transform="translate(36.595964,-4.5630863)"
           id="g5202">
          <rect
             style="opacity:0.997;fill:#eaeaf3;fill-opacity:1;stroke:none;stroke-width:2.478616;stroke-linecap:round;stroke-linejoin:round;stroke-miterlimit:4;stroke-dasharray:none;stroke-opacity:1"
             id="rect5145"
             width="176"
             height="77"
             x="688.73737"
             y="156.89639" />
          <flowRoot
             transform="translate(492.81158,-145.69736)"
             style="font-style:normal;font-weight:normal;font-size:40px;line-height:1.25;font-family:sans-serif;letter-spacing:0px;word-spacing:0px;fill:#5f5f5f;fill-opacity:1;stroke:none"
             id="flowRoot5119"
             xml:space="preserve"><flowRegion
               style="fill:#5f5f5f;fill-opacity:1"
               id="flowRegion5115"><rect
                 style="fill:#5f5f5f;fill-opacity:1"
                 y="319.99997"
                 x="192"
                 height="106.66667"
                 width="352"
                 id="rect5113" /></flowRegion><flowPara
               id="flowPara5117">Mac</flowPara></flowRoot>        </g>
      </g>
    </g>
  </g>
  <g
     id="g4830"
     transform="translate(0,-319.99967)">
    <g
       id="g4762"
       transform="translate(0,746.66667)">
      <g
         id="g4723">
        <rect
           style="opacity:0.997;fill:#333333;fill-opacity:1;stroke:none;stroke-width:11.69561481;stroke-linecap:round;stroke-linejoin:round;stroke-miterlimit:4;stroke-dasharray:none;stroke-opacity:1"
           id="rect5517"
           width="1088"
           height="277.33337"
           x="2.9605949e-17"
           y="917.33325" />
        <flowRoot
           transform="translate(-17.133734,-324.97589)"
           style="font-style:normal;font-weight:normal;font-size:40px;line-height:1.25;font-family:sans-serif;letter-spacing:0px;word-spacing:0px;fill:#000000;fill-opacity:1;stroke:none"
           id="flowRoot5519"
           xml:space="preserve"><flowRegion
             id="flowRegion5521"><rect
               y="1258.6666"
               x="64"
               height="533.33337"
               width="1429.3334"
               id="rect5523" /></flowRegion><flowPara
             style="font-weight:bold;font-size:26.66666603px;fill:#ffffff;fill-opacity:1"
             id="flowPara5529">Related Topics</flowPara><flowPara
             style="font-size:21.33333397px;fill:#ffffff;fill-opacity:1"
             id="flowPara5533">Versions and Build Numbers</flowPara><flowPara
             id="flowPara5571"
             style="font-size:21.33333397px;fill:#ffffff;fill-opacity:1">Turning Extended Tips On and Off</flowPara><flowPara
             style="font-size:21.33333397px;fill:#ffffff;fill-opacity:1"
             id="flowPara5537">The LibreOffice Help Window</flowPara><flowPara
             id="flowPara5573"
             style="font-size:21.33333397px;fill:#ffffff;fill-opacity:1">Tips and Extended Tips</flowPara><flowPara
             style="font-size:21.33333397px;fill:#ffffff;fill-opacity:1"
             id="flowPara5539" /><flowPara
             style="font-size:21.33333397px;fill:#ffffff;fill-opacity:1"
             id="flowPara5541" /><flowPara
             style="font-size:21.33333397px;fill:#ffffff;fill-opacity:1"
             id="flowPara5543" /><flowPara
             style="font-size:21.33333397px;fill:#ffffff;fill-opacity:1"
             id="flowPara5545" /><flowPara
             style="font-size:21.33333397px;fill:#ffffff;fill-opacity:1"
             id="flowPara5547" /><flowPara
             style="font-size:21.33333397px;fill:#ffffff;fill-opacity:1"
             id="flowPara5549" /><flowPara
             style="font-size:21.33333397px;fill:#ffffff;fill-opacity:1"
             id="flowPara5551" /><flowPara
             style="font-size:21.33333397px;fill:#ffffff;fill-opacity:1"
             id="flowPara5553" /><flowPara
             style="font-size:21.33333397px;fill:#ffffff;fill-opacity:1"
             id="flowPara5555" /><flowPara
             style="font-size:21.33333397px;fill:#ffffff;fill-opacity:1"
             id="flowPara5557" /></flowRoot>      </g>
      <flowRoot
         transform="translate(498.44836,-274.97589)"
         style="font-style:normal;font-weight:normal;font-size:40px;line-height:1.25;font-family:sans-serif;letter-spacing:0px;word-spacing:0px;fill:#000000;fill-opacity:1;stroke:none"
         id="flowRoot5023"
         xml:space="preserve"><flowRegion
           id="flowRegion4983"><rect
             y="1258.6666"
             x="64"
             height="533.33337"
             width="1429.3334"
             id="rect4981" /></flowRegion><flowPara
           id="flowPara4995"
           style="font-size:21.33333397px;fill:#ffffff;fill-opacity:1">Index - Keyword Search in the Help</flowPara><flowPara
           id="flowPara4997"
           style="font-size:21.33333397px;fill:#ffffff;fill-opacity:1">Find - The Full-Text Search</flowPara><flowPara
           id="flowPara4999"
           style="font-size:21.33333397px;fill:#ffffff;fill-opacity:1">Managing Bookmarks</flowPara><flowPara
           id="flowPara5001"
           style="font-size:21.33333397px;fill:#ffffff;fill-opacity:1">Contents - The Main Help Topics </flowPara><flowPara
           style="font-size:21.33333397px;fill:#ffffff;fill-opacity:1"
           id="flowPara5003" /><flowPara
           style="font-size:21.33333397px;fill:#ffffff;fill-opacity:1"
           id="flowPara5005" /><flowPara
           style="font-size:21.33333397px;fill:#ffffff;fill-opacity:1"
           id="flowPara5007" /><flowPara
           style="font-size:21.33333397px;fill:#ffffff;fill-opacity:1"
           id="flowPara5009" /><flowPara
           style="font-size:21.33333397px;fill:#ffffff;fill-opacity:1"
           id="flowPara5011" /><flowPara
           style="font-size:21.33333397px;fill:#ffffff;fill-opacity:1"
           id="flowPara5013" /><flowPara
           style="font-size:21.33333397px;fill:#ffffff;fill-opacity:1"
           id="flowPara5015" /><flowPara
           style="font-size:21.33333397px;fill:#ffffff;fill-opacity:1"
           id="flowPara5017" /><flowPara
           style="font-size:21.33333397px;fill:#ffffff;fill-opacity:1"
           id="flowPara5019" /><flowPara
           style="font-size:21.33333397px;fill:#ffffff;fill-opacity:1"
           id="flowPara5021" /></flowRoot>    </g>
  </g>
  <rect
     style="opacity:0.997;fill:#ffffff;fill-opacity:1;stroke:none;stroke-width:2.60929513;stroke-linecap:round;stroke-linejoin:round;stroke-miterlimit:4;stroke-dasharray:none;stroke-opacity:1"
     id="rect5622"
     width="352"
     height="42.666664"
     x="704"
     y="170.66669" />
  <g
     transform="translate(111.01408,131.43999)"
     id="g5634"
     style="fill:#2d2d2d;fill-opacity:1">
    <flowRoot
       xml:space="preserve"
       id="flowRoot5630"
       style="font-style:normal;font-weight:normal;font-size:40px;line-height:1.25;font-family:sans-serif;letter-spacing:0px;word-spacing:0px;fill:#2d2d2d;fill-opacity:1;stroke:none"
       transform="translate(481.65272,-49.203654)"><flowRegion
         id="flowRegion5626"
         style="fill:#2d2d2d;fill-opacity:1"><rect
           id="rect5624"
           width="469.33334"
           height="213.33334"
           x="128"
           y="85.333305"
           style="fill:#2d2d2d;fill-opacity:1" /></flowRegion><flowPara
         id="flowPara5628"
         style="font-size:30.66666603px;fill:#797979;fill-opacity:1">Search</flowPara></flowRoot>  </g>
  <rect
     y="170.66669"
     x="981.33331"
     height="42.666664"
     width="74.666641"
     id="rect5649"
     style="opacity:0.997;fill:#c7c7c7;fill-opacity:1;stroke:none;stroke-width:1.2017529;stroke-linecap:round;stroke-linejoin:round;stroke-miterlimit:4;stroke-dasharray:none;stroke-opacity:1" />
  <path
     style="color:#000000;font-style:normal;font-variant:normal;font-weight:normal;font-stretch:normal;font-size:medium;line-height:normal;font-family:sans-serif;font-variant-ligatures:normal;font-variant-position:normal;font-variant-caps:normal;font-variant-numeric:normal;font-variant-alternates:normal;font-feature-settings:normal;text-indent:0;text-align:start;text-decoration:none;text-decoration-line:none;text-decoration-style:solid;text-decoration-color:#000000;letter-spacing:normal;word-spacing:normal;text-transform:none;writing-mode:lr-tb;direction:ltr;text-orientation:mixed;dominant-baseline:auto;baseline-shift:baseline;text-anchor:start;white-space:normal;shape-padding:0;clip-rule:nonzero;display:inline;overflow:visible;visibility:visible;opacity:0.997;isolation:auto;mix-blend-mode:normal;color-interpolation:sRGB;color-interpolation-filters:linearRGB;solid-color:#000000;solid-opacity:1;vector-effect:none;fill:#2d2d2d;fill-opacity:1;fill-rule:nonzero;stroke:none;stroke-width:2.95907378;stroke-linecap:round;stroke-linejoin:round;stroke-miterlimit:4;stroke-dasharray:none;stroke-dashoffset:0;stroke-opacity:1;paint-order:stroke fill markers;color-rendering:auto;image-rendering:auto;shape-rendering:auto;text-rendering:auto;enable-background:accumulate"
     d="m 1017.0348,173.89591 c -8.8452,0 -16.0473,7.20214 -16.0473,16.04728 0,8.84515 7.2021,16.04729 16.0473,16.04729 4.9323,0 9.3521,-2.2409 12.2986,-5.75588 l 13.7707,9.86951 3.0497,-4.25545 -14.148,-10.14025 c 0.6925,-1.79081 1.0763,-3.73372 1.0763,-5.76522 0,-8.84514 -7.2022,-16.04728 -16.0473,-16.04728 z m 0,2.95908 c 7.246,0 13.0882,5.84226 13.0882,13.0882 0,7.24594 -5.8422,13.08822 -13.0882,13.08822 -7.246,0 -13.0882,-5.84228 -13.0882,-13.08822 0,-7.24594 5.8422,-13.0882 13.0882,-13.0882 z"
     id="path5636"
     inkscape:connector-curvature="0" />
  <g
     id="g5397"
     transform="matrix(0.28850957,0,0,0.28850957,122.95256,-60.180457)">
    <path
       inkscape:connector-curvature="0"
       id="rect4806"
       d="M -315.2497,282.0836 V 578.30704 H -73.593222 V 406.80859 L -198.31958,282.0836 Z"
       style="opacity:0.997;fill:none;fill-opacity:1;stroke:#e5f6e5;stroke-width:9.5005722;stroke-linecap:round;stroke-linejoin:round;stroke-miterlimit:4;stroke-dasharray:none;stroke-opacity:1" />
    <path
       sodipodi:nodetypes="ssssccs"
       inkscape:connector-curvature="0"
       id="rect4816"
       d="m -160.04872,281.67675 h 80.180662 c 3.701643,0 6.68168,2.98005 6.68168,6.68172 v 80.18066 c 0,3.70167 -2.980037,6.68172 -6.68168,6.68172 l -86.862412,-86.86238 c 0,-3.70167 2.98003,-6.68172 6.68175,-6.68172 z"
       style="opacity:0.997;fill:#fbfefb;fill-opacity:1;stroke:#ffffff;stroke-width:4.88287687;stroke-linecap:round;stroke-linejoin:round;stroke-miterlimit:4;stroke-dasharray:none;stroke-opacity:1;paint-order:stroke fill markers" />
  </g>
  <flowRoot
     transform="translate(0.41475984,-64.056797)"
     style="font-style:normal;font-weight:normal;font-size:40px;line-height:1.25;font-family:sans-serif;letter-spacing:0px;word-spacing:0px;fill:#000000;fill-opacity:1;stroke:none"
     id="flowRoot4876-4"
     xml:space="preserve"><flowRegion
       id="flowRegion4878-3"><rect
         y="85.333305"
         x="128"
         height="213.33334"
         width="469.33334"
         id="rect4880-0" /></flowRegion><flowPara
       style="font-weight:bold;fill:#ffffff;fill-opacity:1"
       id="flowPara4882-7">Libre<flowSpan
   style="font-style:normal;font-variant:normal;font-weight:normal;font-stretch:normal;font-family:sans-serif;-inkscape-font-specification:sans-serif"
   id="flowSpan5675">Office</flowSpan></flowPara></flowRoot>  <flowRoot
     xml:space="preserve"
     id="flowRoot5685"
     style="font-style:normal;font-weight:normal;font-size:40px;line-height:1.25;font-family:sans-serif;letter-spacing:0px;word-spacing:0px;fill:#000000;fill-opacity:1;stroke:none"
     transform="translate(0.41475984,-17.059657)"><flowRegion
       id="flowRegion5679"><rect
         id="rect5677"
         width="469.33334"
         height="213.33334"
         x="128"
         y="85.333305" /></flowRegion><flowPara
       id="flowPara5683"
       style="font-style:normal;font-variant:normal;font-weight:normal;font-stretch:normal;font-family:sans-serif;-inkscape-font-specification:sans-serif;fill:#ffffff;fill-opacity:1">Help Online</flowPara></flowRoot>  <flowRoot
     xml:space="preserve"
     id="flowRoot5649"
     style="font-style:normal;font-weight:normal;font-size:40px;line-height:1.25;font-family:sans-serif;letter-spacing:0px;word-spacing:0px;fill:#000000;fill-opacity:1;stroke:none"><flowRegion
       id="flowRegion5651"><rect
         id="rect5653"
         width="170.66667"
         height="85.333336"
         x="1024"
         y="2325.3335" /></flowRegion><flowPara
       id="flowPara5655" /></flowRoot>  <flowRoot
     xml:space="preserve"
     id="flowRoot1461"
     style="font-style:normal;font-weight:normal;font-size:40px;line-height:1.25;font-family:sans-serif;letter-spacing:0px;word-spacing:0px;fill:#000000;fill-opacity:1;stroke:none"
     transform="translate(0,53)"><flowRegion
       id="flowRegion1463"><rect
         id="rect1465"
         width="1013.3333"
         height="1482.6667"
         x="42.666668"
         y="288.00021" /></flowRegion><flowPara
       id="flowPara1467"
       style="font-size:32px;fill:#03669e;fill-opacity:1">Working With LibreOffice Writer</flowPara><flowPara
       id="flowPara1469"
       style="font-size:21.33333397px">   LibreOffice Writer Features</flowPara><flowPara
       id="flowPara1471"
       style="font-size:21.33333397px">   Instructions for Using LibreOffice Writer</flowPara><flowPara
       id="flowPara1473"
       style="font-size:21.33333397px">   Using Charts in LibreOffice</flowPara><flowPara
       id="flowPara1475"
       style="font-size:21.33333397px">   Using Databases in LibreOffice Base</flowPara><flowPara
       id="flowPara1479"
       style="font-size:32px;fill:#03669e;fill-opacity:1">Menus, Toolbars, and Keys</flowPara><flowPara
       id="flowPara1481"
       style="font-size:21.33333397px">   Menus</flowPara><flowPara
       id="flowPara1483"
       style="font-size:21.33333397px">   Toolbars</flowPara><flowPara
       id="flowPara1485"
       style="font-size:21.33333397px">   Shortcut Keys for LibreOffice Writer</flowPara><flowPara
       id="flowPara1489"
       style="font-size:32px;fill:#03669e;fill-opacity:1">Getting Help</flowPara><flowPara
       style="font-size:21.33333397px"
       id="flowPara2321">The Help references the default settings of the program on a system that is set to defaults. Descriptions of colors, mouse actions, or other configurable items can be different for your program and system.</flowPara><flowPara
       style="font-size:21.33333397px"
       id="flowPara2323">   The LibreOffice Help Window</flowPara><flowPara
       style="font-size:21.33333397px"
       id="flowPara2325">   Tips and Extended Tips</flowPara><flowPara
       style="font-size:21.33333397px"
       id="flowPara2327">   Index - Keyword Search in the Help</flowPara><flowPara
       style="font-size:21.33333397px"
       id="flowPara2329">   Find - The Full-Text Search</flowPara><flowPara
       style="font-size:21.33333397px"
       id="flowPara2331">   Managing Bookmarks</flowPara><flowPara
       style="font-size:21.33333397px"
       id="flowPara2333">   Contents - The Main Help Topics</flowPara><flowPara
       style="font-size:21.33333397px"
       id="flowPara2335">   Getting Support</flowPara><flowPara
       id="flowPara1491"
       style="font-size:21.33333397px" /><flowPara
       id="flowPara1493"
       style="font-size:21.33333397px" /><flowPara
       id="flowPara1495"
       style="font-size:21.33333397px" /><flowPara
       id="flowPara1497"
       style="font-size:21.33333397px" /><flowPara
       id="flowPara1499"
       style="font-size:21.33333397px" /><flowPara
       id="flowPara1501"
       style="font-size:21.33333397px" /><flowPara
       id="flowPara1503"
       style="font-size:21.33333397px" /><flowPara
       id="flowPara1505"
       style="font-size:21.33333397px" /></flowRoot>  <g
     transform="matrix(1.001204,0,0,1,-0.64321626,8.1406247e-6)"
     id="g14354">
    <path
       sodipodi:nodetypes="ccccc"
       inkscape:connector-curvature="0"
       id="rect4899-3"
       d="M 0.64244276,256.00021 H 1087.3341 v 68 H 0.64244276 Z"
       style="opacity:0.997;fill:#ffffff;fill-opacity:1;stroke:none;stroke-width:7.9456048;stroke-linecap:round;stroke-linejoin:round;stroke-miterlimit:4;stroke-dasharray:none;stroke-opacity:1" />
    <flowRoot
       transform="matrix(0.79776704,0,0,0.79776704,648.03291,17.886859)"
       style="font-style:normal;font-weight:normal;font-size:40px;line-height:1.25;font-family:sans-serif;letter-spacing:0px;word-spacing:0px;fill:#2d2d2d;fill-opacity:1;stroke:none"
       id="flowRoot5127-3"
       xml:space="preserve"><flowRegion
         style="fill:#2d2d2d;fill-opacity:1"
         id="flowRegion5123-6"><rect
           style="fill:#2d2d2d;fill-opacity:1"
           y="319.99997"
           x="192"
           height="98.810707"
           width="389.12863"
           id="rect5121-7" /></flowRegion><flowPara
         id="flowPara14312">Home &gt; <flowSpan
   style="font-weight:bold"
   id="flowSpan2370">Writer</flowSpan></flowPara></flowRoot>  </g>
  <circle
     style="opacity:0.997;fill:#03669e;fill-opacity:1;stroke:none;stroke-width:2.76685262;stroke-linecap:round;stroke-linejoin:round;stroke-miterlimit:4;stroke-dasharray:none;stroke-opacity:1;paint-order:stroke fill markers"
     id="circle370"
     cx="56.354046"
     cy="418.37219"
     r="2.5663564" />
  <circle
     r="2.5663564"
     cy="469.4599"
     cx="56.354046"
     id="circle3121"
     style="opacity:0.997;fill:#03669e;fill-opacity:1;stroke:none;stroke-width:2.76685262;stroke-linecap:round;stroke-linejoin:round;stroke-miterlimit:4;stroke-dasharray:none;stroke-opacity:1;paint-order:stroke fill markers" />
  <circle
     style="opacity:0.997;fill:#03669e;fill-opacity:1;stroke:none;stroke-width:2.76685262;stroke-linecap:round;stroke-linejoin:round;stroke-miterlimit:4;stroke-dasharray:none;stroke-opacity:1;paint-order:stroke fill markers"
     id="circle3123"
     cx="56.354046"
     cy="519.73669"
     r="2.5663564" />
  <circle
     r="2.5663564"
     cy="568.39166"
     cx="56.354046"
     id="circle3125"
     style="opacity:0.997;fill:#03669e;fill-opacity:1;stroke:none;stroke-width:2.76685262;stroke-linecap:round;stroke-linejoin:round;stroke-miterlimit:4;stroke-dasharray:none;stroke-opacity:1;paint-order:stroke fill markers" />
  <circle
     style="opacity:0.997;fill:#03669e;fill-opacity:1;stroke:none;stroke-width:2.76685262;stroke-linecap:round;stroke-linejoin:round;stroke-miterlimit:4;stroke-dasharray:none;stroke-opacity:1;paint-order:stroke fill markers"
     id="circle3127"
     cx="56.354046"
     cy="669.35071"
     r="2.5663564" />
  <circle
     r="2.5663564"
     cy="720.03296"
     cx="56.354046"
     id="circle3129"
     style="opacity:0.997;fill:#03669e;fill-opacity:1;stroke:none;stroke-width:2.76685262;stroke-linecap:round;stroke-linejoin:round;stroke-miterlimit:4;stroke-dasharray:none;stroke-opacity:1;paint-order:stroke fill markers" />
  <circle
     style="opacity:0.997;fill:#03669e;fill-opacity:1;stroke:none;stroke-width:2.76685262;stroke-linecap:round;stroke-linejoin:round;stroke-miterlimit:4;stroke-dasharray:none;stroke-opacity:1;paint-order:stroke fill markers"
     id="circle3131"
     cx="56.354046"
     cy="771.12067"
     r="2.5663564" />
  <circle
     r="2.5663564"
     cy="1018.8244"
     cx="56.354046"
     id="circle3133"
     style="opacity:0.997;fill:#03669e;fill-opacity:1;stroke:none;stroke-width:2.76685262;stroke-linecap:round;stroke-linejoin:round;stroke-miterlimit:4;stroke-dasharray:none;stroke-opacity:1;paint-order:stroke fill markers" />
  <circle
     style="opacity:0.997;fill:#03669e;fill-opacity:1;stroke:none;stroke-width:2.76685262;stroke-linecap:round;stroke-linejoin:round;stroke-miterlimit:4;stroke-dasharray:none;stroke-opacity:1;paint-order:stroke fill markers"
     id="circle3135"
     cx="56.354046"
     cy="1069.5067"
     r="2.5663564" />
  <circle
     r="2.5663564"
     cy="1120.3215"
     cx="56.354046"
     id="circle3137"
     style="opacity:0.997;fill:#03669e;fill-opacity:1;stroke:none;stroke-width:2.76685262;stroke-linecap:round;stroke-linejoin:round;stroke-miterlimit:4;stroke-dasharray:none;stroke-opacity:1;paint-order:stroke fill markers" />
  <circle
     style="opacity:0.997;fill:#03669e;fill-opacity:1;stroke:none;stroke-width:2.76685262;stroke-linecap:round;stroke-linejoin:round;stroke-miterlimit:4;stroke-dasharray:none;stroke-opacity:1;paint-order:stroke fill markers"
     id="circle3139"
     cx="56.354046"
     cy="1167.7601"
     r="2.5663564" />
  <circle
     r="2.5663564"
     cy="1218.8479"
     cx="56.354046"
     id="circle3141"
     style="opacity:0.997;fill:#03669e;fill-opacity:1;stroke:none;stroke-width:2.76685262;stroke-linecap:round;stroke-linejoin:round;stroke-miterlimit:4;stroke-dasharray:none;stroke-opacity:1;paint-order:stroke fill markers" />
  <circle
     style="opacity:0.997;fill:#03669e;fill-opacity:1;stroke:none;stroke-width:2.76685262;stroke-linecap:round;stroke-linejoin:round;stroke-miterlimit:4;stroke-dasharray:none;stroke-opacity:1;paint-order:stroke fill markers"
     id="circle3143"
     cx="56.354046"
     cy="1269.1246"
     r="2.5663564" />
  <circle
     r="2.5663564"
     cy="1319.4015"
     cx="56.354046"
     id="circle3145"
     style="opacity:0.997;fill:#03669e;fill-opacity:1;stroke:none;stroke-width:2.76685262;stroke-linecap:round;stroke-linejoin:round;stroke-miterlimit:4;stroke-dasharray:none;stroke-opacity:1;paint-order:stroke fill markers" />
</svg>
